<svg xmlns="http://www.w3.org/2000/svg" viewBox="0 0 560 300" width="560" height="300" font-family="'TeX Gyre Termes','Liberation Serif','DejaVu Serif',Georgia,serif">
<defs><marker id="a-red" viewBox="0 0 10 10" refX="8.5" refY="5" markerWidth="6.5" markerHeight="6.5" orient="auto-start-reverse"><path d="M0,0 L10,5 L0,10 z" fill="#A80036"/></marker><marker id="a-ink" viewBox="0 0 10 10" refX="8.5" refY="5" markerWidth="6.5" markerHeight="6.5" orient="auto-start-reverse"><path d="M0,0 L10,5 L0,10 z" fill="#1b1b1b"/></marker><marker id="a-char" viewBox="0 0 10 10" refX="8.5" refY="5" markerWidth="6.5" markerHeight="6.5" orient="auto-start-reverse"><path d="M0,0 L10,5 L0,10 z" fill="#4a4a4a"/></marker><marker id="a-gray" viewBox="0 0 10 10" refX="8.5" refY="5" markerWidth="6.5" markerHeight="6.5" orient="auto-start-reverse"><path d="M0,0 L10,5 L0,10 z" fill="#8a8a8a"/></marker></defs>
<text x="280.00" y="30.00" font-size="12" fill="#4a4a4a" text-anchor="middle" font-family="'TeX Gyre Termes','Liberation Serif','DejaVu Serif',Georgia,serif" font-weight="normal" font-style="normal" dominant-baseline="middle">Spending more compute per query: think longer, answer better.</text>
<line x1="80.00" y1="250.00" x2="516.80" y2="250.00" stroke="#8a8a8a" stroke-width="1.4" marker-end="url(#a-gray)"/>
<line x1="80.00" y1="250.00" x2="80.00" y2="44.80" stroke="#8a8a8a" stroke-width="1.4" marker-end="url(#a-gray)"/>
<text x="298.40" y="280.00" font-size="11" fill="#6b6b6b" text-anchor="middle" font-family="'TeX Gyre Termes','Liberation Serif','DejaVu Serif',Georgia,serif" font-weight="normal" font-style="normal" dominant-baseline="middle">reasoning tokens spent per query →</text>
<text x="46.0" y="155.0" font-size="11" fill="#6b6b6b" text-anchor="middle" font-family="'TeX Gyre Termes','Liberation Serif','DejaVu Serif',Georgia,serif" transform="rotate(-90 46.0 155.0)">accuracy on hard problems</text>
<line x1="80.00" y1="155.00" x2="500.00" y2="155.00" stroke="#d7d2c8" stroke-width="1" stroke-dasharray="2,3"/>
<text x="72.00" y="155.00" font-size="9" fill="#6b6b6b" text-anchor="end" font-family="'TeX Gyre Cursor','Courier New','DejaVu Sans Mono',monospace" font-weight="normal" font-style="normal" dominant-baseline="middle">0.5</text>
<line x1="80.00" y1="60.00" x2="500.00" y2="60.00" stroke="#d7d2c8" stroke-width="1" stroke-dasharray="2,3"/>
<text x="72.00" y="60.00" font-size="9" fill="#6b6b6b" text-anchor="end" font-family="'TeX Gyre Cursor','Courier New','DejaVu Sans Mono',monospace" font-weight="normal" font-style="normal" dominant-baseline="middle">1.0</text>
<line x1="80.00" y1="193.00" x2="500.00" y2="193.00" stroke="#4a4a4a" stroke-width="1.3" stroke-dasharray="5,3"/>
<text x="500.00" y="185.00" font-size="10" fill="#4a4a4a" text-anchor="end" font-family="'TeX Gyre Termes','Liberation Serif','DejaVu Serif',Georgia,serif" font-weight="normal" font-style="normal" dominant-baseline="middle">answer immediately</text>
<polyline points="80.00,193.00 88.40,182.76 96.80,173.42 105.20,164.88 113.60,157.09 122.00,149.97 130.40,143.47 138.80,137.54 147.20,132.12 155.60,127.18 164.00,122.66 172.40,118.54 180.80,114.77 189.20,111.33 197.60,108.19 206.00,105.32 214.40,102.71 222.80,100.32 231.20,98.13 239.60,96.14 248.00,94.32 256.40,92.66 264.80,91.14 273.20,89.76 281.60,88.49 290.00,87.34 298.40,86.28 306.80,85.32 315.20,84.44 323.60,83.64 332.00,82.90 340.40,82.23 348.80,81.62 357.20,81.06 365.60,80.56 374.00,80.09 382.40,79.66 390.80,79.28 399.20,78.92 407.60,78.60 416.00,78.30 424.40,78.03 432.80,77.79 441.20,77.56 449.60,77.36 458.00,77.17 466.40,77.00 474.80,76.84 483.20,76.70 491.60,76.57 500.00,76.45" fill="none" stroke="#A80036" stroke-width="2.6"/>
<text x="382.40" y="67.66" font-size="10.5" fill="#A80036" text-anchor="middle" font-family="'TeX Gyre Termes','Liberation Serif','DejaVu Serif',Georgia,serif" font-weight="normal" font-style="normal" dominant-baseline="middle">with a chain of thought</text>
</svg>
