<svg xmlns="http://www.w3.org/2000/svg" viewBox="0 0 560 340" width="560" height="340" font-family="'TeX Gyre Termes','Liberation Serif','DejaVu Serif',Georgia,serif">
<defs><marker id="a-red" viewBox="0 0 10 10" refX="8.5" refY="5" markerWidth="6.5" markerHeight="6.5" orient="auto-start-reverse"><path d="M0,0 L10,5 L0,10 z" fill="#A80036"/></marker><marker id="a-ink" viewBox="0 0 10 10" refX="8.5" refY="5" markerWidth="6.5" markerHeight="6.5" orient="auto-start-reverse"><path d="M0,0 L10,5 L0,10 z" fill="#1b1b1b"/></marker><marker id="a-char" viewBox="0 0 10 10" refX="8.5" refY="5" markerWidth="6.5" markerHeight="6.5" orient="auto-start-reverse"><path d="M0,0 L10,5 L0,10 z" fill="#4a4a4a"/></marker><marker id="a-gray" viewBox="0 0 10 10" refX="8.5" refY="5" markerWidth="6.5" markerHeight="6.5" orient="auto-start-reverse"><path d="M0,0 L10,5 L0,10 z" fill="#8a8a8a"/></marker></defs>
<line x1="70.00" y1="285.00" x2="520.00" y2="285.00" stroke="#d7d2c8" stroke-width="1" stroke-dasharray="1,0"/>
<text x="60.00" y="285.00" font-size="11" fill="#6b6b6b" text-anchor="end" font-family="'TeX Gyre Cursor','Courier New','DejaVu Sans Mono',monospace" font-weight="normal" font-style="normal" dominant-baseline="middle">0.0</text>
<line x1="70.00" y1="180.00" x2="520.00" y2="180.00" stroke="#d7d2c8" stroke-width="1" stroke-dasharray="2,3"/>
<text x="60.00" y="180.00" font-size="11" fill="#6b6b6b" text-anchor="end" font-family="'TeX Gyre Cursor','Courier New','DejaVu Sans Mono',monospace" font-weight="normal" font-style="normal" dominant-baseline="middle">0.5</text>
<line x1="70.00" y1="75.00" x2="520.00" y2="75.00" stroke="#d7d2c8" stroke-width="1" stroke-dasharray="2,3"/>
<text x="60.00" y="75.00" font-size="11" fill="#6b6b6b" text-anchor="end" font-family="'TeX Gyre Cursor','Courier New','DejaVu Sans Mono',monospace" font-weight="normal" font-style="normal" dominant-baseline="middle">1.0</text>
<line x1="295.00" y1="285.00" x2="295.00" y2="64.50" stroke="#d7d2c8" stroke-width="1"/>
<line x1="55.00" y1="285.00" x2="535.00" y2="285.00" stroke="#8a8a8a" stroke-width="1.4" marker-end="url(#a-gray)"/>
<text x="527.50" y="303.00" font-size="12" fill="#6b6b6b" text-anchor="middle" font-family="'TeX Gyre Cursor','Courier New','DejaVu Sans Mono',monospace" font-weight="normal" font-style="normal" dominant-baseline="middle">x</text>
<text x="307.00" y="69.00" font-size="12" fill="#6b6b6b" text-anchor="start" font-family="'TeX Gyre Cursor','Courier New','DejaVu Sans Mono',monospace" font-weight="normal" font-style="normal" dominant-baseline="middle">σ(x)</text>
<polyline points="70.00,284.48 73.75,284.43 77.50,284.37 81.25,284.30 85.00,284.23 88.75,284.15 92.50,284.06 96.25,283.96 100.00,283.85 103.75,283.73 107.50,283.59 111.25,283.45 115.00,283.29 118.75,283.11 122.50,282.91 126.25,282.69 130.00,282.45 133.75,282.19 137.50,281.90 141.25,281.58 145.00,281.22 148.75,280.83 152.50,280.40 156.25,279.93 160.00,279.41 163.75,278.84 167.50,278.22 171.25,277.53 175.00,276.78 178.75,275.95 182.50,275.04 186.25,274.05 190.00,272.96 193.75,271.78 197.50,270.48 201.25,269.07 205.00,267.53 208.75,265.86 212.50,264.05 216.25,262.09 220.00,259.97 223.75,257.68 227.50,255.21 231.25,252.56 235.00,249.72 238.75,246.69 242.50,243.46 246.25,240.03 250.00,236.39 253.75,232.55 257.50,228.52 261.25,224.30 265.00,219.89 268.75,215.32 272.50,210.59 276.25,205.72 280.00,200.72 283.75,195.63 287.50,190.47 291.25,185.25 295.00,180.00 298.75,174.75 302.50,169.53 306.25,164.37 310.00,159.28 313.75,154.28 317.50,149.41 321.25,144.68 325.00,140.11 328.75,135.70 332.50,131.48 336.25,127.45 340.00,123.61 343.75,119.97 347.50,116.54 351.25,113.31 355.00,110.28 358.75,107.44 362.50,104.79 366.25,102.32 370.00,100.03 373.75,97.91 377.50,95.95 381.25,94.14 385.00,92.47 388.75,90.93 392.50,89.52 396.25,88.22 400.00,87.04 403.75,85.95 407.50,84.96 411.25,84.05 415.00,83.22 418.75,82.47 422.50,81.78 426.25,81.16 430.00,80.59 433.75,80.07 437.50,79.60 441.25,79.17 445.00,78.78 448.75,78.42 452.50,78.10 456.25,77.81 460.00,77.55 463.75,77.31 467.50,77.09 471.25,76.89 475.00,76.71 478.75,76.55 482.50,76.41 486.25,76.27 490.00,76.15 493.75,76.04 497.50,75.94 501.25,75.85 505.00,75.77 508.75,75.70 512.50,75.63 516.25,75.57 520.00,75.52" fill="none" stroke="#A80036" stroke-width="2.6"/>
<circle cx="107.50" cy="283.59" r="3.60" fill="#A80036" stroke="none" stroke-width="0"/>
<text x="107.50" y="299.59" font-size="10.5" fill="#1b1b1b" text-anchor="middle" font-family="'TeX Gyre Cursor','Courier New','DejaVu Sans Mono',monospace" font-weight="normal" font-style="normal" dominant-baseline="middle">σ(-5)=0.007</text>
<line x1="107.50" y1="285.00" x2="107.50" y2="289.00" stroke="#8a8a8a" stroke-width="1"/>
<text x="107.50" y="301.00" font-size="10" fill="#6b6b6b" text-anchor="middle" font-family="'TeX Gyre Cursor','Courier New','DejaVu Sans Mono',monospace" font-weight="normal" font-style="normal" dominant-baseline="middle">-5</text>
<circle cx="220.00" cy="259.97" r="3.60" fill="#A80036" stroke="none" stroke-width="0"/>
<text x="220.00" y="275.97" font-size="10.5" fill="#1b1b1b" text-anchor="middle" font-family="'TeX Gyre Cursor','Courier New','DejaVu Sans Mono',monospace" font-weight="normal" font-style="normal" dominant-baseline="middle">σ(-2)=0.119</text>
<line x1="220.00" y1="285.00" x2="220.00" y2="289.00" stroke="#8a8a8a" stroke-width="1"/>
<text x="220.00" y="301.00" font-size="10" fill="#6b6b6b" text-anchor="middle" font-family="'TeX Gyre Cursor','Courier New','DejaVu Sans Mono',monospace" font-weight="normal" font-style="normal" dominant-baseline="middle">-2</text>
<circle cx="295.00" cy="180.00" r="3.60" fill="#A80036" stroke="none" stroke-width="0"/>
<text x="295.00" y="166.00" font-size="10.5" fill="#1b1b1b" text-anchor="middle" font-family="'TeX Gyre Cursor','Courier New','DejaVu Sans Mono',monospace" font-weight="normal" font-style="normal" dominant-baseline="middle">σ(0)=0.5</text>
<line x1="295.00" y1="285.00" x2="295.00" y2="289.00" stroke="#8a8a8a" stroke-width="1"/>
<text x="295.00" y="301.00" font-size="10" fill="#6b6b6b" text-anchor="middle" font-family="'TeX Gyre Cursor','Courier New','DejaVu Sans Mono',monospace" font-weight="normal" font-style="normal" dominant-baseline="middle">0</text>
<circle cx="370.00" cy="100.03" r="3.60" fill="#A80036" stroke="none" stroke-width="0"/>
<text x="370.00" y="86.03" font-size="10.5" fill="#1b1b1b" text-anchor="middle" font-family="'TeX Gyre Cursor','Courier New','DejaVu Sans Mono',monospace" font-weight="normal" font-style="normal" dominant-baseline="middle">σ(2)=0.881</text>
<line x1="370.00" y1="285.00" x2="370.00" y2="289.00" stroke="#8a8a8a" stroke-width="1"/>
<text x="370.00" y="301.00" font-size="10" fill="#6b6b6b" text-anchor="middle" font-family="'TeX Gyre Cursor','Courier New','DejaVu Sans Mono',monospace" font-weight="normal" font-style="normal" dominant-baseline="middle">2</text>
<circle cx="482.50" cy="76.41" r="3.60" fill="#A80036" stroke="none" stroke-width="0"/>
<text x="482.50" y="62.41" font-size="10.5" fill="#1b1b1b" text-anchor="middle" font-family="'TeX Gyre Cursor','Courier New','DejaVu Sans Mono',monospace" font-weight="normal" font-style="normal" dominant-baseline="middle">σ(5)=0.993</text>
<line x1="482.50" y1="285.00" x2="482.50" y2="289.00" stroke="#8a8a8a" stroke-width="1"/>
<text x="482.50" y="301.00" font-size="10" fill="#6b6b6b" text-anchor="middle" font-family="'TeX Gyre Cursor','Courier New','DejaVu Sans Mono',monospace" font-weight="normal" font-style="normal" dominant-baseline="middle">5</text>
<text x="280.00" y="26.00" font-size="12" fill="#4a4a4a" text-anchor="middle" font-family="'TeX Gyre Termes','Liberation Serif','DejaVu Serif',Georgia,serif" font-weight="normal" font-style="normal" dominant-baseline="middle">Squashes any number into (0, 1); crosses 0.5 at x = 0.</text>
</svg>
